Coordinates
version=1
nRows=32
nColumns=22
inDegrees=yes

Units are S.I. units (second, meters, Newtons, ...)
If the header above contains a line with 'inDegrees', this indicates whether rotational values are in degrees (yes) or radians (no).

endheader
time	pelvis_tilt	pelvis_list	pelvis_rotation	pelvis_tx	pelvis_ty	pelvis_tz	hip_flexion_r	hip_adduction_r	hip_rotation_r	knee_angle_r	ankle_angle_r	subtalar_angle_r	hip_flexion_l	hip_adduction_l	hip_rotation_l	knee_angle_l	ankle_angle_l	subtalar_angle_l	lumbar_extension	lumbar_bending	lumbar_rotation
      5.95000000	     -0.61225244	     -1.01924325	   -107.61194153	      1.11561240	      0.99712369	      0.30881346	     -2.75250855	      9.93587263	     11.06087622	    -19.76752684	     15.34269847	    -10.79861072	     25.50788099	     -5.73468836	      5.00303452	    -17.23199961	      8.78184331	     13.16744492	     -3.30762935	     -1.18987244	      3.51883823
      5.96000000	     -0.58720998	     -0.97793390	   -108.37394693	      1.11380095	      0.99568823	      0.31638372	     -3.07014488	      9.82837974	     11.64461989	    -20.12559267	     15.75196732	    -10.86148976	     25.75496837	     -5.64080973	      5.13318252	    -16.11494863	      8.80534155	     13.22410036	     -3.18853225	     -1.25608013	      3.75910803
      5.97000000	     -0.57017891	     -0.92069917	   -109.10869295	      1.11197784	      0.99419429	      0.32399136	     -3.38346549	      9.73059883	     12.16977124	    -20.46683672	     16.16409215	    -10.93756479	     26.00680728	     -5.56051819	      5.32373487	    -15.06717873	      8.77869278	     13.26269456	     -3.05925740	     -1.30765298	      3.96829881
      5.98000000	     -0.56119564	     -0.86527899	   -109.83024903	      1.11012405	      0.99268588	      0.33163950	     -3.70273849	      9.63153248	     12.60706661	    -20.80510470	     16.53721501	    -10.99796367	     26.23322107	     -5.49548156	      5.56862504	    -14.08059007	      8.74784027	     13.30806457	     -2.94083627	     -1.35326676	      4.18283400
      5.99000000	     -0.56471134	     -0.81600464	   -110.54550333	      1.10821209	      0.99118991	      0.33933139	     -4.04088551	      9.53106214	     12.95285432	    -21.12873709	     16.87270218	    -11.02683229	     26.42536286	     -5.45410415	      5.85410787	    -13.15597161	      8.70023535	     13.37243851	     -2.83834031	     -1.39161221	      4.40125305
      6.00000000	     -0.58741654	     -0.77798655	   -111.25596110	      1.10623777	      0.98973542	      0.34708252	     -4.40938024	      9.42974148	     13.19966167	    -21.42965013	     17.16432887	    -11.00200657	     26.57039992	     -5.44155800	      6.18384073	    -12.29216191	      8.64362586	     13.45974706	     -2.75826818	     -1.41586137	      4.63011224
      6.01000000	     -0.63683982	     -0.76214783	   -111.95913019	      1.10419127	      0.98836151	      0.35491906	     -4.82833734	      9.32728344	     13.35422270	    -21.70148950	     17.40689773	    -10.88201066	     26.65510203	     -5.46049335	      6.54710542	    -11.49656831	      8.58799999	     13.56887473	     -2.71052279	     -1.42682438	      4.86300431
      6.02000000	     -0.71551876	     -0.70227527	   -112.63803060	      1.10209477	      0.98697546	      0.36283356	     -5.23648769	      9.25752386	     13.44416778	    -21.93608648	     17.60086862	    -10.78609533	     26.75427001	     -5.52822968	      6.98579452	    -10.78224533	      8.51792350	     13.64776931	     -2.62633878	     -1.38768402	      5.05937131
      6.03000000	     -0.82109013	     -0.70576501	   -113.33739579	      1.09989522	      0.98577239	      0.37085527	     -5.73299859	      9.15932223	     13.46712014	    -22.15174365	     17.72737249	    -10.47920739	     26.73760228	     -5.62332589	      7.39002066	    -10.13571055	      8.49391441	     13.72090301	     -2.61755828	     -1.35062872	      5.30487991
      6.04000000	     -0.94832861	     -0.66623172	   -114.03457275	      1.09760325	      0.98458928	      0.37896884	     -6.21425463	      9.08151887	     13.46494878	    -22.34098739	     17.79152578	    -10.19179155	     26.73163115	     -5.76816683	      7.82056006	     -9.58232371	      8.47979104	     13.74113456	     -2.56483831	     -1.27612454	      5.55647056
      6.05000000	     -1.08614714	     -0.59537079	   -114.74315687	      1.09517747	      0.98346291	      0.38719081	     -6.69329238	      9.01081919	     13.49055735	    -22.49923490	     17.79240140	     -9.92987664	     26.70856284	     -5.95580414	      8.25277847	     -9.09764309	      8.48332030	     13.72976650	     -2.47000112	     -1.18136212	      5.81222884
      6.06000000	     -1.23671949	     -0.57119164	   -115.47196798	      1.09265346	      0.98251220	      0.39554789	     -7.22396192	      8.90147799	     13.49657622	    -22.66693649	     17.73468391	     -9.41637626	     26.59565920	     -6.15159654	      8.63831658	     -8.70838825	      8.58961750	     13.61520100	     -2.42070606	     -1.09673931	      6.10346109
      6.07000000	     -1.40320738	     -0.47085516	   -116.22125100	      1.08997397	      0.98159092	      0.40399673	     -7.71028823	      8.82880535	     13.59216200	    -22.80425963	     17.56835529	     -9.07217135	     26.50534167	     -6.41303937	      9.04080983	     -8.39542142	      8.68799079	     13.52410271	     -2.28169248	     -0.96490829	      6.41489364
      6.08000000	     -1.57782552	     -0.38883425	   -116.99153396	      1.08716766	      0.98082920	      0.41258918	     -8.22443894	      8.73208434	     13.72938382	    -22.94158570	     17.34210731	     -8.55103881	     26.34409516	     -6.68564227	      9.41302956	     -8.17006590	      8.87827849	     13.35861811	     -2.14980833	     -0.83773704	      6.74695364
      6.09000000	     -1.72183568	     -0.32305730	   -117.75949456	      1.08432128	      0.98019706	      0.42137397	     -8.72945548	      8.57405387	     13.87304860	    -23.10653553	     17.12713641	     -7.77424330	     26.12506059	     -6.91567116	      9.79630078	     -8.01804695	      9.11543274	     13.11828595	     -2.00026534	     -0.74272711	      7.06145200
      6.10000000	     -1.88224595	     -0.21518890	   -118.54142366	      1.08135748	      0.97966243	      0.43030969	     -9.21644386	      8.44031611	     14.11724404	    -23.25482368	     16.78766529	     -7.10004226	     25.88397074	     -7.18193544	     10.21221163	     -7.93902205	      9.38861085	     12.96027535	     -1.79578753	     -0.60705287	      7.38724754
      6.11000000	     -2.03387900	     -0.10526360	   -119.31978777	      1.07832748	      0.97925065	      0.43944004	     -9.70074977	      8.28550005	     14.40879074	    -23.40413030	     16.37926364	     -6.35635794	     25.58855972	     -7.42973671	     10.67627768	     -7.92048309	      9.67838860	     12.83612767	     -1.56599111	     -0.47345462	      7.70065605
      6.12000000	     -2.18111374	     -0.00172331	   -120.09196089	      1.07524412	      0.97894395	      0.44875312	    -10.18058754	      8.11241081	     14.72343128	    -23.57578317	     15.92297665	     -5.57815277	     25.22945180	     -7.65528403	     11.20702389	     -7.95398639	      9.99319537	     12.73705967	     -1.32769783	     -0.33989384	      7.99211661
      6.13000000	     -2.29271994	      0.09676711	   -120.84400961	      1.07212657	      0.97871530	      0.45829477	    -10.64618183	      7.89014734	     15.02219848	    -23.74909412	     15.38836812	     -4.72555924	     24.82067804	     -7.82247183	     11.80357352	     -8.02037047	     10.24673640	     12.63887733	     -1.05586208	     -0.23244154	      8.24782755
      6.14000000	     -2.39111339	      0.17825345	   -121.58340797	      1.06895800	      0.97854133	      0.46799773	    -11.10869189	      7.63617958	     15.28207859	    -23.94368675	     14.83329044	     -3.88805662	     24.34764022	     -7.94958755	     12.47795060	     -8.11548601	     10.48562223	     12.51343476	     -0.78845015	     -0.14062445	      8.47016088
      6.15000000	     -2.43180952	      0.23881751	   -122.29921809	      1.06578485	      0.97839918	      0.47789433	    -11.54358076	      7.30449881	     15.45409121	    -24.15648426	     14.21968906	     -3.01092927	     23.83925165	     -7.98506379	     13.19748576	     -8.23574583	     10.59909581	     12.33181495	     -0.49974954	     -0.10411921	      8.64980362
      6.16000000	     -2.39926392	      0.26586678	   -122.99644142	      1.06261180	      0.97828188	      0.48795385	    -11.93998228	      6.87502654	     15.51204443	    -24.40576555	     13.57553576	     -2.10705585	     23.30967728	     -7.90954732	     13.92558529	     -8.38896946	     10.57087696	     12.06250722	     -0.19687650	     -0.14852061	      8.78543823
      6.17000000	     -2.29787623	      0.25755390	   -123.67388765	      1.05944924	      0.97820877	      0.49814798	    -12.29091617	      6.35484026	     15.44042609	    -24.70277148	     12.88274525	     -1.22961707	     22.77840660	     -7.72399947	     14.63640457	     -8.58643962	     10.37629142	     11.71235561	      0.11293067	     -0.27283199	      8.89016968
      6.18000000	     -2.12907794	      0.21299225	   -124.33613750	      1.05628742	      0.97822085	      0.50844899	    -12.58655022	      5.74761341	     15.23778068	    -25.05707739	     12.11485104	     -0.34226674	     22.27731599	     -7.42922448	     15.25876711	     -8.86342420	     10.00870344	     11.25915666	      0.42906663	     -0.47918628	      8.98381766
      6.19000000	     -1.88780299	      0.10287888	   -124.95290545	      1.05318161	      0.97837809	      0.51883136	    -12.81768926	      5.04317967	     14.83543842	    -25.51508804	     11.27105577	      0.47002973	     21.80241789	     -6.99587580	     15.81088787	     -9.21660593	      9.45310847	     10.81195151	      0.71993847	     -0.79460551	      9.03541095
      6.20000000	     -1.60578773	     -0.04714758	   -125.54584654	      1.05005594	      0.97873272	      0.52924610	    -12.99164540	      4.28833360	     14.32194991	    -26.04730628	     10.27275572	      1.34353569	     21.40419375	     -6.47449568	     16.15113249	     -9.72209360	      8.80441357	     10.27343168	      0.99597281	     -1.17787230	      9.06765082
      6.21000000	     -1.26090522	     -0.24193557	   -126.08826514	      1.04700564	      0.97926612	      0.53962586	    -13.04006746	      3.46790005	     13.58067578	    -26.74520336	      9.15100091	      2.03346971	     21.10250439	     -5.84250254	     16.30993554	    -10.37313042	      8.06407996	      9.93940979	      1.25611107	     -1.65342175	      9.08055656
      6.22000000	     -0.90909498	     -0.48437909	   -126.59855589	      1.04397268	      0.98004141	      0.54994740	    -13.01901625	      2.62655552	     12.71748729	    -27.56698867	      7.84905403	      2.77352336	     20.86347698	     -5.16091663	     16.22500471	    -11.18312534	      7.36714164	      9.60804080	      1.46563153	     -2.17016875	      9.07726085
      6.23000000	     -0.57131978	     -0.75514459	   -127.08078009	      1.04098852	      0.98102438	      0.56014182	    -12.90174239	      1.79031017	     11.72905693	    -28.54212827	      6.37364768	      3.47865808	     20.67653393	     -4.47533236	     15.90584052	    -12.11438932	      6.72670272	      9.40477785	      1.62102076	     -2.69276770	      9.06626484
      6.24000000	     -0.26418622	     -1.04482247	   -127.54641877	      1.03805841	      0.98217808	      0.57017707	    -12.68809737	      0.96910983	     10.63120079	    -29.66434846	      4.73653037	      4.10619189	     20.50913751	     -3.82132968	     15.39054105	    -13.10907776	      6.14274521	      9.38472310	      1.72152562	     -3.19884081	      9.09264148
      6.25000000	      0.00786829	     -1.35691788	   -128.01071391	      1.03519607	      0.98345920	      0.58000551	    -12.37230104	      0.15675837	      9.46064431	    -30.95274930	      2.99826932	      4.68875649	     20.31229407	     -3.21711628	     14.70632257	    -14.07911868	      5.60113174	      9.53293776	      1.75438960	     -3.68156291	      9.13504265
      6.26000000	      0.24258315	     -1.67771574	   -128.49082853	      1.03240631	      0.98481231	      0.58960500	    -11.94901894	     -0.64632571	      8.25868950	    -32.39518318	      1.19345735	      5.20413267	     20.06031969	     -2.68031198	     13.91233178	    -14.95770892	      5.09514037	      9.83860656	      1.73231115	     -4.12755749	      9.23081405
